<svg width="412" height="62" viewBox="0 0 412 62" fill="none" xmlns="http://www.w3.org/2000/svg">
<g clip-path="url(#clip0_33_147)">
<path d="M204.52 54.2868C204.52 57.4893 201.926 60.1276 198.675 60.1276H7.21734C3.96712 60.1276 1.37305 57.5046 1.37305 54.2868V7.69806C1.37305 4.51081 3.96712 1.87256 7.20208 1.87256H198.675C201.91 1.87256 204.52 4.46506 204.52 7.69806V54.2868Z" fill="black"/>
<path d="M45.9759 30.6646C45.9302 25.7541 50.0044 23.3446 50.1875 23.2531C47.8681 19.8981 44.2974 19.4406 43.0157 19.3948C40.0401 19.0593 37.1256 21.1791 35.5997 21.1791C34.0279 21.1791 31.678 19.4101 29.145 19.4711C25.8948 19.5168 22.8429 21.4078 21.1644 24.3511C17.7005 30.2986 20.2794 39.1131 23.6059 43.9473C25.2539 46.3111 27.1918 48.9798 29.7096 48.8731C32.1968 48.7663 33.1277 47.2871 36.1185 47.2871C39.0788 47.2871 39.9333 48.8578 42.5274 48.8121C45.1977 48.7511 46.8762 46.4178 48.4785 44.0236C50.3859 41.3091 51.1641 38.6403 51.1946 38.5031C51.1336 38.4726 46.0065 36.5206 45.9759 30.6341V30.6646ZM41.093 16.2076C42.4205 14.5301 43.3361 12.2883 43.0767 9.9856C41.154 10.0618 38.7431 11.3123 37.3545 12.9441C36.1337 14.3776 35.0198 16.7566 35.3097 18.9526C37.4765 19.1051 39.7044 17.8546 41.1082 16.2076H41.093ZM81.8505 48.5376H78.3866L76.4945 42.5901H69.8872L68.0866 48.5376H64.7296L71.2453 28.2551H75.2737L81.8352 48.5376H81.8505ZM75.8994 40.0738L74.2208 34.7821C74.0225 34.2331 73.6868 32.9521 73.1832 30.9696H73.1222C72.9238 31.8236 72.6034 33.1046 72.1608 34.7821L70.4518 40.0738H75.9146H75.8994ZM98.6662 41.0651C98.6662 43.5356 97.9948 45.4876 96.6519 46.9516C95.4312 48.2326 93.9511 48.8731 92.1657 48.8731C90.2278 48.8731 88.8545 48.1868 87.9999 46.7991H87.9389V54.5003H84.6887V38.7471C84.6887 37.1763 84.6429 35.5751 84.5666 33.9281H87.4354L87.6185 36.2613H87.6795C88.7477 34.5076 90.4262 33.6383 92.6082 33.6383C94.3325 33.6383 95.7669 34.3398 96.9266 35.6971C98.0711 37.0696 98.6509 38.8691 98.6509 41.0956L98.6662 41.0651ZM95.3549 41.1718C95.3549 39.7383 95.0192 38.5793 94.3783 37.6643C93.6764 36.6731 92.7303 36.2003 91.5401 36.2003C90.7466 36.2003 90.0142 36.4748 89.358 37.0086C88.7019 37.5423 88.2899 38.2286 88.0762 39.0978C87.9847 39.5096 87.9237 39.8298 87.9237 40.0891V42.5291C87.9237 43.5966 88.2594 44.5116 88.9155 45.2283C89.5564 45.9603 90.4109 46.3263 91.4485 46.3263C92.6693 46.3263 93.6306 45.8688 94.3173 44.9233C95.004 43.9778 95.3397 42.7273 95.3397 41.1871L95.3549 41.1718ZM115.512 41.0651C115.512 43.5356 114.841 45.4876 113.483 46.9516C112.293 48.2326 110.782 48.8731 108.997 48.8731C107.074 48.8731 105.685 48.1868 104.846 46.7991H104.8V54.5003H101.55V38.7471C101.55 37.1763 101.504 35.5751 101.428 33.9281H104.282L104.465 36.2613H104.526C105.594 34.5076 107.242 33.6383 109.454 33.6383C111.179 33.6383 112.628 34.3398 113.773 35.6971C114.933 37.0696 115.512 38.8691 115.512 41.0956V41.0651ZM112.201 41.1718C112.201 39.7383 111.896 38.5793 111.225 37.6643C110.507 36.6731 109.577 36.2003 108.386 36.2003C107.578 36.2003 106.86 36.4748 106.204 37.0086C105.563 37.5423 105.136 38.2286 104.938 39.0978C104.831 39.5096 104.785 39.8298 104.785 40.0891V42.5291C104.785 43.5966 105.09 44.5116 105.762 45.2283C106.433 45.9603 107.288 46.3263 108.325 46.3263C109.546 46.3263 110.507 45.8688 111.194 44.9233C111.865 43.9778 112.216 42.7273 112.216 41.1871L112.201 41.1718ZM134.342 42.8493C134.342 44.5726 133.732 45.9756 132.542 47.0736C131.214 48.2478 129.368 48.8426 127.003 48.8426C124.821 48.8426 123.066 48.4308 121.738 47.5768L122.501 44.8623C123.92 45.7163 125.492 46.1433 127.201 46.1433C128.422 46.1433 129.383 45.8688 130.07 45.3198C130.741 44.7708 131.092 44.0236 131.092 43.1086C131.092 42.2851 130.817 41.5836 130.253 41.0193C129.703 40.4551 128.757 39.9518 127.46 39.4486C123.905 38.1218 122.12 36.1851 122.12 33.6536C122.12 31.9761 122.73 30.6036 123.997 29.5361C125.217 28.4686 126.896 27.9348 128.971 27.9348C130.833 27.9348 132.359 28.2398 133.595 28.8956L132.755 31.5643C131.596 30.9543 130.314 30.6493 128.864 30.6493C127.72 30.6493 126.819 30.9086 126.179 31.4728C125.614 31.9913 125.355 32.6013 125.355 33.3333C125.355 34.1263 125.66 34.7973 126.27 35.3158C126.819 35.8038 127.796 36.3223 129.23 36.8866C130.985 37.5881 132.282 38.4116 133.091 39.3571C133.915 40.2721 134.312 41.4616 134.312 42.8646L134.342 42.8493ZM145.115 36.3376H141.514V43.4593C141.514 45.2588 142.125 46.1586 143.406 46.1586C143.986 46.1586 144.474 46.1128 144.856 46.0061L144.947 48.4766C144.291 48.7206 143.452 48.8426 142.399 48.8426C141.117 48.8426 140.11 48.4461 139.378 47.6683C138.661 46.9058 138.31 45.5638 138.31 43.7033V36.3528H136.173V33.9128H138.31V31.2441L141.514 30.2833V33.9433H145.085V36.3833L145.115 36.3376ZM161.29 41.1108C161.29 43.3526 160.634 45.1978 159.352 46.6466C157.979 48.1258 156.209 48.8731 153.981 48.8731C151.845 48.8731 150.136 48.1563 148.869 46.7381C147.587 45.3198 146.946 43.5356 146.946 41.3548C146.946 39.0673 147.587 37.2068 148.93 35.7581C150.227 34.3246 151.982 33.5926 154.225 33.5926C156.361 33.5926 158.101 34.3246 159.413 35.7276C160.634 37.1306 161.275 38.9301 161.275 41.1108H161.29ZM157.903 41.2176C157.903 39.8451 157.597 38.7013 157.033 37.7406C156.361 36.5663 155.385 35.9868 154.134 35.9868C152.821 35.9868 151.814 36.5663 151.143 37.7406C150.532 38.7013 150.273 39.8756 150.273 41.2786C150.273 42.6206 150.548 43.7796 151.143 44.7403C151.845 45.9298 152.821 46.5093 154.088 46.5093C155.339 46.5093 156.316 45.8993 157.018 44.7251C157.597 43.7338 157.903 42.5596 157.903 41.2176ZM171.85 36.7646C171.544 36.7036 171.178 36.6731 170.827 36.6731C169.683 36.6731 168.798 37.1306 168.172 37.9693C167.653 38.7318 167.379 39.7078 167.379 40.8668V48.5376H164.128L164.159 38.5183C164.159 36.8408 164.113 35.3158 164.037 33.9128H166.845L166.967 36.7341H167.058C167.409 35.7581 167.943 34.9956 168.691 34.4008C169.408 33.8823 170.186 33.6383 171.041 33.6383C171.346 33.6383 171.59 33.6383 171.834 33.6841V36.7798L171.85 36.7646ZM186.407 40.5313C186.407 41.1108 186.361 41.5988 186.285 42.0106H176.519C176.565 43.4593 177.038 44.5573 177.938 45.3198C178.777 45.9908 179.845 46.3263 181.142 46.3263C182.592 46.3263 183.889 46.0976 185.11 45.6401L185.598 47.9276C184.225 48.5071 182.577 48.8121 180.715 48.8121C178.426 48.8121 176.641 48.1411 175.344 46.8296C174.047 45.4571 173.406 43.6881 173.406 41.4463C173.406 39.2351 174.016 37.3898 175.207 35.9258C176.488 34.3703 178.197 33.5773 180.349 33.5773C182.455 33.5773 184.057 34.3398 185.14 35.9106C186.01 37.1611 186.453 38.6861 186.453 40.5161L186.407 40.5313ZM183.294 39.6926C183.325 38.7318 183.111 37.8931 182.684 37.1916C182.104 36.2766 181.234 35.8191 180.09 35.8191C179.021 35.8191 178.152 36.2766 177.495 37.1611C176.946 37.8626 176.626 38.6861 176.519 39.6926H183.294ZM74.8465 15.7501C74.8465 17.5801 74.3124 18.9068 73.229 19.8218C72.2219 20.6606 70.7875 21.0723 68.9564 21.0723C68.0408 21.0723 67.2779 21.0113 66.637 20.9198V11.1751C67.4762 11.0226 68.3918 10.9768 69.3837 10.9768C71.1385 10.9768 72.4355 11.3581 73.3511 12.1053C74.3277 12.9593 74.8312 14.1793 74.8312 15.7653L74.8465 15.7501ZM73.1679 15.8111C73.1679 14.6521 72.8628 13.7523 72.2524 13.1271C71.6115 12.5171 70.7265 12.2121 69.5362 12.2121C69.0327 12.2121 68.6207 12.2121 68.2392 12.3036V19.7761C68.4376 19.7761 68.8038 19.8066 69.3074 19.8066C70.5281 19.8066 71.4894 19.4558 72.1608 18.7848C72.8017 18.0833 73.1374 17.1073 73.1374 15.7958L73.1679 15.8111ZM83.7731 17.3361C83.7731 18.4341 83.4679 19.3491 82.8576 20.0506C82.1709 20.7826 81.3011 21.1486 80.2025 21.1486C79.1343 21.1486 78.3103 20.7978 77.6847 20.0811C77.0743 19.3948 76.7691 18.5103 76.7691 17.4428C76.7691 16.3448 77.0743 15.4603 77.7305 14.7283C78.3714 14.0268 79.2564 13.6608 80.3245 13.6608C81.3927 13.6608 82.2472 14.0116 82.8881 14.7283C83.4985 15.3993 83.8036 16.2533 83.8036 17.3513L83.7731 17.3361ZM82.1251 17.3818C82.1251 16.7261 81.9725 16.1618 81.6979 15.6738C81.3622 15.1096 80.8891 14.8198 80.2635 14.8198C79.6226 14.8198 79.1343 15.0943 78.7986 15.6586C78.4934 16.1161 78.3714 16.7261 78.3714 17.3971C78.3714 18.0376 78.5239 18.6171 78.7986 19.0746C79.1496 19.6541 79.6226 19.9438 80.2482 19.9438C80.8586 19.9438 81.3164 19.6388 81.6674 19.0746C81.9725 18.5866 82.1251 18.0071 82.1251 17.3513V17.3818ZM95.7822 13.7981L93.5238 20.9656H92.0436L91.1281 17.8698C90.8687 17.0616 90.6703 16.2991 90.5177 15.5213C90.3651 16.3143 90.1668 17.0921 89.9073 17.8546L88.9308 20.9503H87.4354L85.3296 13.7828H86.9776L87.8016 17.1836C87.9999 17.9918 88.1678 18.7543 88.3051 19.4711C88.4577 18.8916 88.6408 18.1291 88.9155 17.1836L89.9379 13.7676H91.2502L92.2268 17.1226C92.4557 17.9461 92.654 18.7391 92.8066 19.4863H92.8371C92.9439 18.7543 93.1118 17.9613 93.3254 17.1226L94.2105 13.7676H95.7669L95.7822 13.7981ZM104.068 20.9808H102.466V16.8633C102.466 15.5976 101.977 14.9723 101.016 14.9723C100.558 14.9723 100.162 15.1248 99.8564 15.4756C99.5512 15.8263 99.3986 16.2381 99.3986 16.6956V20.9656H97.8116V15.8416C97.8116 15.2011 97.8117 14.5148 97.7659 13.7828H99.185L99.246 14.8961H99.2918C99.4749 14.5606 99.7496 14.2861 100.116 14.0421C100.574 13.7371 101.031 13.6151 101.581 13.6151C102.252 13.6151 102.801 13.8286 103.259 14.2708C103.809 14.8046 104.083 15.5976 104.083 16.6498V20.9656L104.068 20.9808ZM108.493 20.9808H106.876V10.5041H108.478L108.493 20.9808ZM117.893 17.3361C117.893 18.4341 117.588 19.3491 116.947 20.0506C116.275 20.7826 115.421 21.1486 114.307 21.1486C113.269 21.1486 112.43 20.7978 111.804 20.0811C111.194 19.3948 110.858 18.5103 110.858 17.4428C110.858 16.3448 111.164 15.4603 111.835 14.7283C112.476 14.0268 113.361 13.6608 114.429 13.6608C115.497 13.6608 116.336 14.0116 116.993 14.7283C117.603 15.3993 117.908 16.2533 117.908 17.3513L117.893 17.3361ZM116.214 17.3818C116.214 16.7261 116.092 16.1618 115.802 15.6738C115.451 15.1096 114.978 14.8198 114.353 14.8198C113.712 14.8198 113.224 15.0943 112.888 15.6586C112.583 16.1161 112.43 16.7261 112.43 17.3971C112.43 18.0376 112.583 18.6171 112.888 19.0746C113.224 19.6541 113.697 19.9438 114.322 19.9438C114.933 19.9438 115.39 19.6388 115.757 19.0746C116.062 18.5866 116.214 18.0071 116.214 17.3513V17.3818ZM125.629 20.9808H124.195L124.042 20.1573H124.012C123.523 20.7978 122.822 21.1333 121.921 21.1333C121.25 21.1333 120.701 20.9198 120.289 20.4776C119.907 20.1116 119.724 19.6083 119.724 19.0288C119.724 18.1596 120.09 17.5038 120.823 17.0158C121.555 16.5583 122.593 16.3296 123.936 16.3448V16.1923C123.936 15.2468 123.432 14.7741 122.44 14.7741C121.723 14.7741 121.097 14.9571 120.563 15.3078L120.258 14.2403C120.914 13.8438 121.738 13.6303 122.7 13.6303C124.592 13.6303 125.538 14.6216 125.538 16.6041V19.2576C125.538 19.9896 125.568 20.5691 125.645 20.9808H125.629ZM123.951 18.5103V17.4428C122.211 17.3971 121.326 17.8698 121.326 18.8763C121.326 19.2423 121.433 19.5321 121.631 19.7151C121.845 19.8676 122.12 19.9743 122.425 19.9743C122.776 19.9743 123.111 19.8676 123.401 19.6388C123.707 19.4253 123.89 19.1356 123.966 18.8001V18.4951L123.951 18.5103ZM134.709 20.9808H133.289L133.228 19.8371H133.198C132.74 20.7063 131.977 21.1486 130.878 21.1486C130.009 21.1486 129.291 20.8131 128.742 20.1268C128.132 19.4406 127.857 18.5713 127.857 17.4733C127.857 16.3143 128.162 15.3688 128.803 14.6521C129.414 13.9811 130.131 13.6456 131.016 13.6456C131.977 13.6456 132.664 13.9506 133.045 14.6216H133.076V10.5041H134.678V19.0441C134.678 19.7456 134.678 20.3861 134.724 20.9808H134.709ZM133.061 17.9613V16.7413C133.061 16.5431 133.061 16.3753 133.015 16.2533C132.923 15.8721 132.71 15.5366 132.435 15.2773C132.13 15.0028 131.763 14.8808 131.367 14.8808C130.756 14.8808 130.299 15.1096 129.948 15.5823C129.612 16.0398 129.429 16.6498 129.429 17.4123C129.429 18.1138 129.581 18.6933 129.917 19.1356C130.268 19.5931 130.741 19.8523 131.321 19.8523C131.566 19.8596 131.808 19.808 132.029 19.7018C132.249 19.5956 132.441 19.4381 132.587 19.2423C132.893 18.8916 133.045 18.4493 133.045 17.9308L133.061 17.9613ZM148.396 17.3361C148.396 18.4341 148.091 19.3491 147.45 20.0506C146.779 20.7826 145.924 21.1486 144.81 21.1486C143.742 21.1486 142.918 20.7978 142.292 20.0811C141.682 19.3948 141.346 18.5103 141.346 17.4428C141.346 16.3448 141.651 15.4603 142.323 14.7283C142.964 14.0268 143.849 13.6608 144.917 13.6608C145.985 13.6608 146.84 14.0116 147.481 14.7283C148.091 15.3993 148.396 16.2533 148.396 17.3513V17.3361ZM146.718 17.3818C146.718 16.7261 146.595 16.1618 146.306 15.6738C145.97 15.1096 145.497 14.8198 144.871 14.8198C144.23 14.8198 143.742 15.0943 143.406 15.6586C143.101 16.1161 142.979 16.7261 142.979 17.3971C142.979 18.0376 143.132 18.6171 143.406 19.0746C143.757 19.6541 144.23 19.9438 144.856 19.9438C145.466 19.9438 145.955 19.6388 146.29 19.0746C146.595 18.5866 146.748 18.0071 146.748 17.3513L146.718 17.3818ZM156.987 20.9808H155.4V16.8633C155.4 15.5976 154.912 14.9723 153.95 14.9723C153.447 14.9723 153.065 15.1248 152.775 15.4756C152.47 15.8263 152.318 16.2381 152.318 16.6956V20.9656H150.761V15.8416C150.761 15.2011 150.731 14.5148 150.685 13.7828H152.089L152.165 14.8961H152.211C152.394 14.5606 152.669 14.2861 153.035 14.0421C153.462 13.7371 153.95 13.6151 154.469 13.6151C155.141 13.6151 155.69 13.8286 156.148 14.2708C156.697 14.8046 156.972 15.5976 156.972 16.6498V20.9656L156.987 20.9808ZM167.76 14.9876H165.99V18.4951C165.99 19.3796 166.295 19.8218 166.906 19.8218C167.211 19.8218 167.455 19.7913 167.638 19.7456L167.684 20.9656C167.348 21.0723 166.921 21.1181 166.417 21.1181C165.807 21.1181 165.303 20.9351 164.937 20.5538C164.586 20.1726 164.403 19.5321 164.403 18.6171V14.9876H163.335L163.365 13.7981H164.403V12.4713L165.975 12.0138V13.7676H167.745V14.9571L167.76 14.9876ZM176.214 20.9808H174.611V16.8938C174.611 15.6128 174.154 14.9571 173.177 14.9571C172.414 14.9571 171.911 15.3383 171.651 16.0856C171.575 16.2381 171.56 16.4363 171.56 16.6651V20.9808H169.957V10.5041H171.544V14.8351H171.575C172.078 14.0421 172.796 13.6456 173.711 13.6456C174.398 13.6456 174.932 13.8591 175.39 14.3013C175.924 14.8351 176.183 15.6433 176.183 16.7108V20.9808H176.214ZM184.942 17.0463C184.942 17.3513 184.942 17.5801 184.896 17.7783H180.105C180.105 18.4798 180.349 19.0288 180.792 19.3948C181.203 19.6998 181.707 19.8828 182.363 19.8828C183.08 19.8828 183.737 19.7761 184.316 19.5473L184.561 20.6606C183.889 20.9656 183.08 21.1181 182.15 21.1181C181.036 21.1181 180.166 20.7826 179.525 20.1268C178.884 19.4711 178.579 18.6018 178.579 17.4733C178.579 16.4058 178.884 15.4908 179.464 14.7741C180.074 14.0116 180.914 13.6151 181.982 13.6151C183.004 13.6151 183.813 14.0268 184.332 14.7893C184.744 15.3993 184.942 16.1618 184.942 17.0463ZM183.416 16.6346C183.447 16.1771 183.34 15.7501 183.111 15.4146C182.836 14.9571 182.424 14.7436 181.844 14.7436C181.326 14.7436 180.898 14.9571 180.578 15.3993C180.303 15.7348 180.151 16.1618 180.12 16.6193H183.431L183.416 16.6346Z" fill="white"/>
<path d="M198.676 59.975C201.834 59.975 204.474 57.3825 204.474 54.2868V7.71325C204.474 4.6175 201.834 2.025 198.676 2.025H7.21763C6.47018 2.025 5.73006 2.17213 5.03951 2.45799C4.34896 2.74385 3.72151 3.16285 3.19299 3.69105C2.12559 4.7578 1.52593 6.20463 1.52593 7.71325V54.2868C1.52593 57.413 4.08948 59.975 7.21763 59.975H198.676ZM198.676 61.5H7.21763C3.25022 61.5 0 58.2518 0 54.2868V7.71325C0 3.74825 3.23496 0.5 7.21763 0.5H198.676C202.643 0.5 206 3.733 206 7.71325V54.2868C206 58.2518 202.643 61.5 198.676 61.5Z" fill="#A6A6A6"/>
<path d="M404.37 0.5H213.63C209.416 0.5 206 3.91383 206 8.125V53.875C206 58.0862 209.416 61.5 213.63 61.5H404.37C408.584 61.5 412 58.0862 412 53.875V8.125C412 3.91383 408.584 0.5 404.37 0.5Z" fill="black"/>
<path d="M278.36 16.116C278.406 17.2445 277.994 18.3425 277.215 19.166C276.346 20.081 275.125 20.569 273.858 20.5385C271.92 20.508 270.196 19.3185 269.433 17.5495C268.716 15.7653 269.128 13.7065 270.501 12.334C271.371 11.419 272.592 10.931 273.858 10.9615C274.499 10.9615 275.14 11.0835 275.735 11.3428C276.285 11.5868 276.773 11.9528 277.17 12.3798L276.361 13.188C275.75 12.4713 274.835 12.0748 273.874 12.1205C272.912 12.1205 271.981 12.5018 271.31 13.188C270.623 13.8895 270.272 14.8198 270.303 15.7805C270.303 17.2293 271.142 18.556 272.47 19.1355C273.813 19.715 275.369 19.4405 276.407 18.4188C276.864 17.9155 277.17 17.2445 277.17 16.5583H273.858V15.4908H278.284C278.345 15.7043 278.36 15.9483 278.36 16.1618V16.116ZM285.349 12.3035H281.229V15.201H284.982V16.299H281.229V19.1965H285.349V20.325H280.008V11.175H285.349V12.3035ZM290.354 20.325H289.179V12.3035H286.63V11.175H292.978V12.3035H290.354V20.325ZM297.464 20.325V11.175H298.639V20.325H297.464ZM303.858 20.325H302.683V12.3035H300.12V11.175H306.406V12.3035H303.858V20.325ZM318.309 19.1355C316.477 20.9655 313.471 20.9655 311.594 19.1355C310.734 18.2149 310.256 17.0021 310.256 15.7424C310.256 14.4827 310.734 13.27 311.594 12.3493C312.51 11.4343 313.7 10.9463 314.952 10.9463C316.233 10.9463 317.439 11.4495 318.309 12.3493C319.19 13.2594 319.682 14.4761 319.682 15.7424C319.682 17.0087 319.19 18.2254 318.309 19.1355ZM312.48 18.373C313.853 19.7455 316.081 19.7455 317.454 18.373C318.827 16.8785 318.827 14.6215 317.454 13.127C316.081 11.7545 313.853 11.7545 312.48 13.127C311.106 14.6215 311.106 16.8785 312.48 18.373ZM321.33 20.325V11.175H322.764L327.22 18.2968V11.175H328.395V20.325H327.174L322.535 12.8525V20.325H321.33Z" fill="white" stroke="white" stroke-width="0.2"/>
<path d="M309.976 33.6688C306.406 33.6688 303.506 36.5968 303.522 40.1653C303.53 41.8871 304.22 43.5355 305.441 44.7501C306.662 45.9647 308.314 46.6466 310.037 46.6466C313.608 46.6466 316.507 43.7491 316.507 40.1653C316.553 38.4268 315.866 36.7646 314.646 35.5446C313.425 34.3246 311.746 33.6536 310.007 33.6841L309.976 33.6688ZM309.976 44.0846C308.359 44.1913 306.848 43.3221 306.161 41.8581C305.46 40.3941 305.704 38.6556 306.818 37.4813C307.916 36.2918 309.625 35.9106 311.136 36.4901C312.662 37.1001 313.638 38.5336 313.638 40.1501C313.684 41.1566 313.333 42.1326 312.631 42.8951C311.945 43.6271 310.983 44.0541 309.976 44.0846ZM295.785 33.6688C292.184 33.6688 289.3 36.5663 289.3 40.1653C289.3 41.8822 289.982 43.5288 291.197 44.7429C292.412 45.9569 294.06 46.639 295.778 46.639C297.495 46.639 299.143 45.9569 300.358 44.7429C301.573 43.5288 302.255 41.8822 302.255 40.1653C302.255 38.4268 301.584 36.7646 300.363 35.5446C299.142 34.3246 297.464 33.6536 295.724 33.6841L295.785 33.6688ZM295.785 44.0846C294.152 44.2066 292.642 43.3221 291.94 41.8733C291.238 40.4093 291.482 38.6708 292.596 37.4813C293.135 36.9056 293.835 36.5037 294.604 36.3271C295.373 36.1505 296.178 36.2073 296.914 36.4901C298.44 37.1001 299.417 38.5336 299.417 40.1501C299.463 41.1566 299.112 42.1326 298.41 42.8951C297.723 43.6271 296.762 44.0541 295.755 44.0846H295.785ZM278.847 35.6666V38.4116H285.439C285.333 39.7078 284.798 40.9278 283.913 41.8733C282.586 43.2458 280.74 43.9626 278.832 43.8863C276.915 43.8472 275.09 43.0588 273.749 41.6903C272.407 40.3218 271.656 38.4822 271.656 36.5663C271.656 34.6504 272.407 32.8108 273.749 31.4423C275.09 30.0738 276.915 29.2854 278.832 29.2463C280.694 29.2158 282.494 29.9173 283.822 31.2288L285.76 29.2768C284.854 28.3682 283.776 27.6483 282.589 27.1588C281.403 26.6693 280.131 26.4199 278.847 26.4251C275.155 26.2726 271.676 28.1636 269.783 31.3508C268.855 32.9072 268.364 34.6856 268.364 36.4977C268.364 38.3098 268.855 40.0882 269.783 41.6446C270.708 43.2071 272.039 44.49 273.635 45.3573C275.231 46.2246 277.032 46.6437 278.847 46.5703C281.487 46.7228 284.036 45.6553 285.867 43.7643C287.48 42.0171 288.341 39.7053 288.262 37.3288C288.262 36.7493 288.232 36.1698 288.11 35.6056L278.863 35.6971L278.847 35.6666ZM347.972 37.8016C347.582 36.6306 346.842 35.6075 345.851 34.871C344.86 34.1345 343.667 33.7202 342.433 33.6841C340.754 33.6841 339.152 34.3551 338.008 35.5903C336.833 36.8103 336.237 38.4878 336.329 40.1653C336.329 41.8886 336.97 43.5508 338.191 44.7708C339.411 45.9908 341.059 46.6771 342.768 46.6466C344.95 46.6466 346.98 45.5791 348.185 43.7796L345.973 42.2546C345.301 43.3678 344.096 44.0541 342.768 44.0541C341.426 44.0998 340.174 43.3221 339.64 42.0716L348.338 38.5031L348.002 37.8321L347.972 37.8016ZM339.121 39.9671C339.076 39.0216 339.396 38.0761 340.037 37.3746C340.678 36.6578 341.563 36.2308 342.524 36.1851C343.531 36.1241 344.477 36.6426 344.935 37.5576L339.137 39.9671H339.121ZM332.117 46.2501H334.956V27.1876H332.102V46.2501H332.117ZM327.433 35.1176H327.326C326.456 34.1416 325.22 33.5926 323.908 33.5926C320.444 33.7451 317.728 36.6121 317.728 40.0738C317.728 43.5508 320.475 46.4026 323.923 46.5703C325.236 46.6008 326.487 46.0518 327.341 45.0453H327.433V45.9908C327.433 48.4766 326.105 49.8033 323.969 49.8033C323.258 49.7869 322.567 49.5611 321.983 49.1542C321.4 48.7473 320.949 48.1774 320.688 47.5158L318.201 48.5376C318.677 49.6693 319.477 50.6352 320.5 51.3136C321.524 51.992 322.725 52.3526 323.954 52.3501C327.28 52.3501 330.057 50.3676 330.057 45.5943V34.0501H327.418V35.1176H327.433ZM324.167 44.0846C322.123 43.9016 320.566 42.1936 320.566 40.1501C320.566 38.1066 322.123 36.3986 324.167 36.2156C325.159 36.2613 326.075 36.7188 326.731 37.4356C327.402 38.1981 327.723 39.1588 327.646 40.1501C327.738 41.1413 327.402 42.1326 326.731 42.8646C326.09 43.6271 325.159 44.0541 324.167 44.0846ZM361.339 27.1876H354.533V46.2501H357.387V39.0216H361.385C363.597 39.1741 365.718 38.1066 366.878 36.1851C368.038 34.2941 368.038 31.9151 366.878 30.0241C366.311 29.093 365.499 28.3358 364.53 27.8355C363.561 27.3352 362.473 27.111 361.385 27.1876H361.339ZM361.339 36.3376H357.372V29.8411H361.415C363.216 29.8411 364.696 31.3051 364.696 33.1198C364.696 34.9041 363.216 36.3681 361.415 36.3681L361.354 36.3223L361.339 36.3376ZM378.948 33.5926C376.812 33.4706 374.828 34.6143 373.867 36.4901L376.415 37.5576C376.919 36.6121 377.941 36.0631 379.009 36.1546C379.742 36.0631 380.474 36.2766 381.054 36.7646C381.634 37.2221 382 37.8778 382.076 38.5946V38.8081C381.161 38.3201 380.138 38.0761 379.101 38.0761C376.354 38.0761 373.607 39.6011 373.607 42.3461C373.668 43.5661 374.218 44.6641 375.088 45.4571C375.957 46.2501 377.132 46.6466 378.322 46.5551C379.787 46.6618 381.191 45.9451 381.985 44.7251H382.076V46.2501H384.823V38.9301C384.823 35.5751 382.29 33.6383 379.024 33.6383L378.963 33.5926H378.948ZM378.597 44.0388C377.682 44.0388 376.385 43.5813 376.385 42.4223C376.385 40.8973 378.002 40.3788 379.436 40.3788C380.352 40.3788 381.237 40.5771 382.03 41.0193C381.934 41.8473 381.541 42.6123 380.924 43.173C380.307 43.7337 379.507 44.0521 378.673 44.0693L378.612 44.0236L378.597 44.0388ZM394.833 34.0501L391.568 42.3156H391.476L388.073 34.0501H385.021L390.103 45.6096L387.203 52.0146H390.179L397.992 34.0501H394.818H394.833ZM369.197 46.2501H372.036V27.1876H369.182V46.2501H369.197Z" fill="white"/>
<path d="M221.931 12.0138C221.427 12.6238 221.168 13.432 221.259 14.225V47.775C221.214 48.5375 221.458 49.3 221.961 49.91L222.068 50.0168L240.944 31.2287V30.7712L222.022 11.9375L221.931 12.0443V12.0138Z" fill="url(#paint0_linear_33_147)"/>
<path d="M247.2 37.5117L240.897 31.2134V30.7559L247.2 24.5034L247.352 24.5644L254.829 28.8039C256.965 30.0239 256.965 32.0064 254.829 33.2264L247.352 37.4507L247.2 37.5117Z" fill="url(#paint1_linear_33_147)"/>
<path d="M247.352 37.4355L240.943 31L221.915 49.9863C222.831 50.7793 224.143 50.8097 225.089 50.0777L247.367 37.4507" fill="url(#paint2_linear_33_147)"/>
<path d="M247.352 24.5644L225.074 11.9069C224.616 11.5562 224.051 11.375 223.475 11.3945C222.899 11.414 222.348 11.6328 221.915 12.0137L240.943 30.9999L247.352 24.5644Z" fill="#00F076"/>
<path d="M404.676 59.975C407.834 59.975 410.474 57.3825 410.474 54.2868V7.71325C410.474 4.6175 407.834 2.025 404.676 2.025H213.218C211.708 2.025 210.26 2.6243 209.193 3.69105C208.126 4.7578 207.526 6.20463 207.526 7.71325V54.2868C207.526 57.413 210.089 59.975 213.218 59.975H404.676ZM404.676 61.5H213.218C209.25 61.5 206 58.2518 206 54.2868V7.71325C206 3.74825 209.235 0.5 213.218 0.5H404.676C408.643 0.5 412 3.733 412 7.71325V54.2868C412 58.2518 408.643 61.5 404.676 61.5Z" fill="#A6A6A6"/>
</g>
<defs>
<linearGradient id="paint0_linear_33_147" x1="1206.37" y1="11.9375" x2="1206.37" y2="3819.86" gradientUnits="userSpaceOnUse">
<stop offset="0.03938" stop-color="#00C3FF"/>
<stop offset="0.97744" stop-color="#00E1FF"/>
</linearGradient>
<linearGradient id="paint1_linear_33_147" x1="1495.22" y1="674.916" x2="-2194.48" y2="674.916" gradientUnits="userSpaceOnUse">
<stop stop-color="#FDDE31"/>
<stop offset="0.4" stop-color="#FABC31"/>
<stop offset="0.77" stop-color="#F8A431"/>
<stop offset="1" stop-color="#F79B31"/>
</linearGradient>
<linearGradient id="paint2_linear_33_147" x1="2414.67" y1="380.22" x2="-10.4685" y2="4467.12" gradientUnits="userSpaceOnUse">
<stop stop-color="#FF3A44"/>
<stop offset="1" stop-color="#C4206D"/>
</linearGradient>
<clipPath id="clip0_33_147">
<rect width="412" height="61" fill="white" transform="translate(0 0.5)"/>
</clipPath>
</defs>
</svg>
